<svg width="701px" height="78px" viewBox="0 0 701 78" version="1.1" xmlns="http://www.w3.org/2000/svg" xmlns:xlink="http://www.w3.org/1999/xlink">
    <!-- Generator: Sketch 47.1 (45422) - http://www.bohemiancoding.com/sketch -->
    <desc>Created with Sketch.</desc>
    <defs>
        <polygon id="path-1" points="350.210716 0.869 0 0.869 0 77.94 700.421433 77.94 700.421433 0.869"></polygon>
    </defs>
    <g id="Page-1" stroke="none" stroke-width="1" fill="none" fill-rule="evenodd">
        <g id="Finnair_Logo_White">
            <mask id="mask-2" fill="white">
                <use xlink:href="#path-1"></use>
            </mask>
            <g id="Clip-2"></g>
            <path d="M102.481,78 C102.481,78 119.314,78 124.121,78 C129.463,78 133.192,75.777 135.175,71.64 C137.526,66.73 169.085,0.87 169.085,0.87 C169.085,0.87 152.255,0.87 147.449,0.87 C142.104,0.87 138.377,3.093 136.393,7.232 C134.041,12.14 102.481,78 102.481,78" id="Fill-1" fill="#FFFFFE" mask="url(#mask-2)"></path>
            <path d="M517.576,78 C517.576,78 534.406,78 539.215,78 C544.557,78 548.283,75.777 550.268,71.64 C552.62,66.73 584.181,0.87 584.181,0.87 C584.181,0.87 567.346,0.87 562.543,0.87 C557.197,0.87 553.472,3.093 551.492,7.232 C549.136,12.14 517.576,78 517.576,78" id="Fill-3" fill="#FFFFFE" mask="url(#mask-2)"></path>
            <path d="M75.065,0.869 C69.802,0.869 66.804,1.511 62.965,3.531 C61.7,4.196 47.835,11.448 37.808,16.765 C29.875,20.969 24.35,26.903 20.868,34.164 C10.835,55.095 -0.002,77.999 0,78 C0,78 16.834,78 21.639,78 C26.983,78 30.709,75.777 32.694,71.64 C33.568,69.814 38.442,59.646 43.354,49.4 C56.876,49.4 75.564,49.4 78.578,49.4 C83.403,49.4 85.261,48.528 87.119,44.649 L88.932,40.77 C88.932,40.768 64.368,40.768 46.536,40.768 C50.384,32.741 56.124,20.673 56.124,20.673 C58.542,15.622 61.396,13.59 67.823,13.59 L91.802,13.59 C91.802,13.59 108.633,13.59 113.439,13.59 C118.783,13.59 122.511,11.367 124.496,7.229 L127.56,0.87 C127.56,0.869 90.707,0.869 75.065,0.869" id="Fill-4" fill="#FFFFFE" mask="url(#mask-2)"></path>
            <path d="M406.868,0.906 C406.868,0.906 401.728,0.906 396.921,0.906 C391.579,0.906 387.852,3.128 385.868,7.266 C384.515,10.096 370.221,40.03 362.901,55.349 C362.6,53.744 361.489,51.64 360.505,50.294 C347.146,32.018 331.407,10.416 326.147,3.085 C324.363,0.597 321.363,0.297 318.434,1.838 C315.968,3.134 314.817,3.748 312.238,5.114 C304.737,9.085 300.389,14.16 296.772,21.701 C286.74,42.63 270.164,77.999 270.164,78 C270.164,78 275.24,78 280.045,78 C285.39,78 289.116,75.777 291.098,71.64 C292.175,69.39 304.308,43.873 311.365,29.095 C311.517,30.393 312.229,31.745 312.895,32.636 C323.852,47.299 340.671,69.808 342.351,72.035 C345.226,75.851 348.2,78 353.542,78 C355.862,78 364.317,78 369.843,78 L406.868,0.906" id="Fill-5" fill="#FFFFFE" mask="url(#mask-2)"></path>
            <path d="M286.391,0.906 C286.391,0.906 281.251,0.906 276.445,0.906 C271.103,0.906 267.374,3.128 265.392,7.266 C264.036,10.096 249.746,40.03 242.425,55.349 C242.121,53.744 241.012,51.64 240.028,50.294 C226.669,32.018 210.928,10.416 205.667,3.085 C203.885,0.597 200.887,0.297 197.96,1.838 C195.494,3.134 194.34,3.748 191.764,5.114 C184.26,9.085 179.913,14.16 176.298,21.701 C166.263,42.63 149.687,77.999 149.689,78 C149.689,78 154.762,78 159.568,78 C164.913,78 168.637,75.777 170.621,71.64 C171.699,69.39 183.83,43.873 190.888,29.095 C191.042,30.393 191.752,31.745 192.418,32.636 C203.375,47.299 220.194,69.808 221.872,72.035 C224.747,75.851 227.721,78 233.066,78 C235.386,78 243.84,78 249.368,78 L286.391,0.906" id="Fill-6" fill="#FFFFFE" mask="url(#mask-2)"></path>
            <path d="M436.323,40.77 C441.955,29.049 445.739,21.081 445.739,21.081 C448.391,15.548 450.901,13.59 457.748,13.59 L478.291,13.59 C478.291,13.59 486.605,13.59 493.217,13.59 C496.826,13.59 497.952,15.56 496.68,18.213 C493.64,24.557 489.77,32.636 485.879,40.77 C471.913,40.768 451.391,40.768 436.323,40.77 Z M520.147,18.591 C519.053,17.801 504.012,6.398 503.096,5.71 C498.823,2.486 493.395,0.869 487.685,0.869 C477.143,0.869 471.07,0.869 463.852,0.869 C458.588,0.869 455.589,1.511 451.749,3.531 C450.486,4.196 436.943,11.296 426.919,16.612 C418.518,21.062 413.209,26.823 409.536,34.485 C399.504,55.415 388.782,77.999 388.786,78 C388.786,78 405.619,78 410.425,78 C415.768,78 419.493,75.777 421.477,71.64 C422.266,69.996 426.992,60.168 432.168,49.4 C446.376,49.4 469.842,49.4 481.744,49.4 C478.102,57.01 474.689,64.133 472.221,69.287 C470.041,73.834 472.409,78 478.211,78 C481.94,78 497.657,78 497.657,78 C497.657,78 520.55,30.183 521.758,27.731 C523.859,23.474 523.604,21.084 520.147,18.591 L520.147,18.591 Z" id="Fill-7" fill="#FFFFFE" mask="url(#mask-2)"></path>
            <path d="M674.004,18.213 C671.742,22.936 669.872,27.031 667.023,32.979 C664.958,37.293 661.195,39.183 652.294,39.183 C638.039,39.183 625.286,39.183 614.489,39.183 C618.337,31.155 623.71,19.994 623.71,19.994 C625.844,15.541 629.038,13.59 634.63,13.59 L655.612,13.59 C655.612,13.59 663.929,13.59 670.539,13.59 C674.15,13.59 675.275,15.56 674.004,18.213 Z M697.475,18.591 C696.375,17.801 682.416,7.118 681.506,6.427 C676.969,3.009 670.979,0.869 664.665,0.869 C654.124,0.869 649.416,0.869 642.202,0.869 C636.936,0.869 633.94,1.511 630.102,3.531 C628.837,4.196 616.439,10.685 606.412,16.004 C596.492,21.257 591.784,26.28 587.587,35.03 C577.554,55.959 567.132,77.999 567.132,78 C567.132,78 583.97,78 588.773,78 C594.121,78 597.843,75.777 599.828,71.64 C600.704,69.814 606.429,58.064 611.343,47.817 C611.343,47.817 614.799,47.82 623.943,47.821 L623.941,47.821 C629.942,47.821 632.023,49.674 634.434,53.761 C638.986,61.479 644.15,70.167 645.021,71.64 C647.872,76.458 650.392,78 656.791,78 C661.597,78 681.496,78 681.496,78 C681.496,78 675.083,67.641 667.743,55.191 C666.592,53.239 665.274,51.881 661.592,51.27 C660.464,51.085 655.842,50.32 651.015,49.521 L651.243,47.83 C660.6,47.833 668.527,47.833 671.251,47.833 C684.781,47.833 690.802,44.879 693.731,39.183 C695.116,36.491 698.695,28.508 699.082,27.731 C701.185,23.474 700.929,21.084 697.475,18.591 L697.475,18.591 Z" id="Fill-8" fill="#FFFFFE" mask="url(#mask-2)"></path>
        </g>
    </g>
</svg>
