<?xml version="1.0" encoding="UTF-8" standalone="no"?>
<svg xmlns:rdf="http://www.w3.org/1999/02/22-rdf-syntax-ns#" xmlns="http://www.w3.org/2000/svg" height="105.29" width="391.58" version="1.1" xmlns:cc="http://creativecommons.org/ns#" xmlns:dc="http://purl.org/dc/elements/1.1/">
 <g transform="translate(-224.21 -602.57)">
  <g transform="matrix(1.25 0 0 -1.25 366.75 645.62)">
   <path d="m0 0c0 4.938 1.068 8.654 3.204 11.146 2.137 2.493 5.53 3.739 10.184 3.739 4.653 0 8.689-1.259 12.107-3.776 0.047-0.332 0.071-0.818 0.071-1.459s-0.167-1.697-0.498-3.17c-0.333-1.471-0.783-2.658-1.354-3.56h-5.982c-0.854 1.614-1.306 3.134-1.353 4.559-0.569 0.094-1.045 0.142-1.423 0.142-1.806 0-3.088-0.499-3.848-1.496-0.759-0.998-1.138-2.801-1.138-5.412v-2.706h10.896v-6.552h-10.896v-20.155c3.561-0.711 5.982-1.637 7.263-2.777l-0.711-5.482h-19.728l-0.711 5.482c0.665 0.901 1.97 1.709 3.917 2.422v20.51h-3.133l-0.784 4.914c1.043 0.949 2.35 1.494 3.917 1.638v1.993z" fill="#fff"/>
  </g>
  <g transform="matrix(1.25 0 0 -1.25 421.83 658.25)">
   <path d="m0 0c-3.608 0-6.102-0.689-7.477-2.066v-16.309c3.845-0.711 6.48-1.708 7.905-2.99l-0.713-5.483h-20.367l-0.712 5.483c0.664 0.9 1.969 1.709 3.917 2.422v19.797c-1.663 0.57-2.968 1.375-3.917 2.42l0.712 5.486c2.61 0.568 4.96 0.853 7.05 0.853 2.089 0 3.821-0.048 5.199-0.142v-4.487c1.091 1.282 2.492 2.338 4.201 3.17 1.71 0.829 3.264 1.245 4.665 1.245 1.4 0 2.361-0.118 2.884-0.355l-0.213-9.259c-0.95 0.143-1.994 0.215-3.134 0.215" fill="#fff"/>
  </g>
  <g transform="matrix(1.25 0 0 -1.25 444.12 683.45)">
   <path d="m0 0c2.422 0 4.345 0.715 5.77 2.139v5.839h-4.987c-3.418 0-5.126-1.306-5.126-3.915 0-1.189 0.368-2.164 1.105-2.921 0.734-0.761 1.815-1.142 3.238-1.142m-12.817 23.645c0 0.712 0.024 1.47 0.072 2.279 4.414 2.373 9.162 3.56 14.241 3.56 5.08 0 8.725-0.961 10.932-2.884 2.208-1.922 3.312-5.117 3.312-9.578v-15.169c1.66-0.332 2.965-0.737 3.916-1.21v-6.196c-2.421-1.138-5.887-1.709-10.397-1.709-0.476 1.233-0.878 2.73-1.21 4.486-2.043-2.993-5.745-4.486-11.11-4.486-3.18 0-5.898 0.924-8.153 2.777-2.256 1.851-3.384 4.367-3.384 7.548s1.057 5.686 3.169 7.515c2.113 1.826 5.259 2.741 9.437 2.741h7.762v3.417c0 3.705-1.971 5.557-5.912 5.557-1.472 0-2.682-0.143-3.63-0.428-0.097-1.995-0.381-3.538-0.856-4.629h-6.978c-0.808 1.66-1.211 3.797-1.211 6.409" fill="#fff"/>
  </g>
  <g transform="matrix(1.25 0 0 -1.25 504.38 691.81)">
   <path d="m0 0-12.605 18.444 7.834 10.183c-0.807 0.475-1.378 0.973-1.709 1.495l0.71 5.485h15.668l0.713-5.485c-1.045-1.329-3.015-2.374-5.912-3.133l-6.836-7.834 8.047-10.611c2.944-0.665 5.009-1.685 6.195-3.062l-0.711-5.482h-11.394zm-26.422 50.562c2.66 0.616 5.128 0.924 7.407 0.924s4.202-0.069 5.768-0.213v-43.369c1.852-0.713 3.157-1.521 3.918-2.422l-0.712-5.482h-16.381l-0.711 5.482c0.663 0.901 1.969 1.709 3.916 2.422v34.752c-1.662 0.571-2.967 1.377-3.916 2.422l0.711 5.484z" fill="#fff"/>
  </g>
  <g transform="matrix(1.25 0 0 -1.25 536.22 636.09)">
   <path d="m0 0v-8.973h10.184v-5.983h-10.184v-18.017c0-1.52 0.213-2.625 0.641-3.311 0.425-0.69 1.447-1.034 3.062-1.034 1.611 0 3.348 0.357 5.199 1.069l2.137-5.556c-3.656-1.852-7.394-2.775-11.217-2.775-3.822 0-6.409 0.816-7.762 2.456-1.354 1.638-2.03 4.023-2.03 7.156v20.012h-3.204l-0.783 4.345c0.758 0.9 2.324 1.802 4.7 2.707 0.569 3.89 1.922 6.525 4.059 7.904h5.198z" fill="#fff"/>
  </g>
  <g transform="matrix(1.25 0 0 -1.25 561.8 641.16)">
   <path d="m0 0c-3.963 0-5.945 1.791-5.945 5.376s1.982 5.377 5.945 5.377 5.947-1.792 5.947-5.377-1.984-5.376-5.947-5.376m-8.082-4.913c2.658 0.615 5.127 0.926 7.406 0.926 2.28 0 4.203-0.073 5.77-0.215v-28.414c1.849-0.713 3.156-1.522 3.916-2.422l-0.711-5.483h-16.381l-0.711 5.483c0.664 0.9 1.969 1.709 3.916 2.422v19.797c-1.662 0.57-2.967 1.376-3.916 2.421l0.711 5.485z" fill="#fff"/>
  </g>
  <g transform="matrix(1.25 0 0 -1.25 585.88 669.2)">
   <path d="m0 0c0-7.598 2.277-11.396 6.834-11.396 2.326 0 4.047 0.867 5.164 2.6 1.115 1.734 1.674 4.569 1.674 8.512 0 7.405-2.326 11.108-6.981 11.108-2.277 0-3.964-0.819-5.056-2.457s-1.635-4.428-1.635-8.367m6.301-18.658c-5.627 0-9.793 1.493-12.498 4.485-2.707 2.991-4.061 7.514-4.061 13.568 0 6.052 1.508 10.682 4.524 13.886 3.013 3.205 7.345 4.807 12.996 4.807 5.65 0 9.838-1.424 12.57-4.274 2.729-2.847 4.094-7.298 4.094-13.352 0-6.052-1.531-10.754-4.594-14.101-3.061-3.347-7.406-5.019-13.031-5.019" fill="#fff"/>
  </g>
  <g transform="matrix(1.25 0 0 -1.25 282.55 611.38)">
   <path d="m0 0-0.08-0.014v-77.176l13.817 27.485-5.273-0.879 1.458 4.542 6.175 1.033 3.88 7.716-7.655-1.276 2.929 9.121 9.461 1.577 17.552 34.914-0.13-0.022c-13.291-4.351-27.442-6.798-42.134-7.021" fill="#fff"/>
  </g>
  <g transform="matrix(1.25 0 0 -1.25 277.04 611.38)">
   <path d="m0 0 0.08-0.014v-77.176l-13.817 27.485 5.273-0.879-1.458 4.542-6.175 1.033-3.88 7.716 7.655-1.276-2.929 9.121-9.461 1.577-17.552 34.914 0.13-0.022c13.291-4.351 27.442-6.798 42.134-7.021" fill="#fff"/>
  </g>
 </g>
</svg>
